<?xml version="1.0" encoding="UTF-8"?>
<svg width="128" height="128" viewBox="0 0 128 128" xmlns="http://www.w3.org/2000/svg">
  <circle cx="64" cy="64" r="60" fill="#1DA1F2"/>
  <circle cx="64" cy="64" r="50" fill="#ffffff"/>
  <path d="M86.5,46.2c-2.3,1-4.7,1.7-7.3,2c2.6-1.6,4.6-4,5.6-7c-2.5,1.5-5.2,2.5-8.1,3.1c-2.3-2.5-5.6-4-9.3-4
    c-7,0-12.7,5.7-12.7,12.7c0,1,0.1,2,0.3,2.9c-10.6-0.5-20-5.6-26.3-13.3c-1.1,1.9-1.7,4-1.7,6.3c0,4.4,2.2,8.3,5.7,10.5
    c-2.1-0.1-4-0.6-5.7-1.6c0,0.1,0,0.1,0,0.2c0,6.1,4.4,11.2,10.2,12.4c-1.1,0.3-2.2,0.4-3.4,0.4c-0.8,0-1.6-0.1-2.4-0.2
    c1.6,5,6.3,8.7,11.8,8.8c-4.3,3.4-9.8,5.4-15.7,5.4c-1,0-2-0.1-3-0.2c5.6,3.6,12.2,5.7,19.3,5.7c23.2,0,35.9-19.2,35.9-35.9
    c0-0.5,0-1.1,0-1.6C82.7,50.9,84.8,48.7,86.5,46.2z" fill="#1DA1F2"/>
  <circle cx="82" cy="82" r="18" fill="#1DA1F2" stroke="#ffffff" stroke-width="4"/>
  <rect x="94" y="94" width="24" height="6" rx="3" transform="rotate(45 94 94)" fill="#1DA1F2" stroke="#ffffff" stroke-width="4"/>
</svg> 